<?xml version="1.0" encoding="UTF-8"?>
<svg xmlns="http://www.w3.org/2000/svg" xmlns:xlink="http://www.w3.org/1999/xlink" width="96pt" height="96pt" viewBox="0 0 96 96" version="1.1">
<g id="surface15987247">
<path style=" stroke:none;fill-rule:nonzero;fill:rgb(0%,0%,0%);fill-opacity:1;" d="M 48 96 C 21.492188 96 0 74.507812 0 48 C 0 21.492188 21.492188 0 48 0 C 74.507812 0 96 21.492188 96 48 C 96 74.507812 74.507812 96 48 96 Z M 48 96 "/>
<path style=" stroke:none;fill-rule:nonzero;fill:rgb(100%,100%,100%);fill-opacity:1;" d="M 39.601562 11.699219 C 32.320312 11.699219 26.398438 17.621094 26.398438 24.898438 C 26.398438 28.878906 28.175781 32.445312 30.96875 34.867188 C 26.824219 37.09375 24 41.472656 24 46.5 C 24 50.964844 26.234375 54.910156 29.640625 57.300781 C 26.234375 59.691406 24 63.632812 24 68.101562 C 24 75.378906 29.921875 81.300781 37.199219 81.300781 C 44.480469 81.300781 50.398438 75.378906 50.398438 68.101562 L 50.398438 38.101562 L 58.800781 38.101562 C 66.078125 38.101562 72 32.179688 72 24.898438 C 72 17.621094 66.078125 11.699219 58.800781 11.699219 Z M 39.601562 16.5 L 58.800781 16.5 C 63.433594 16.5 67.199219 20.269531 67.199219 24.898438 C 67.199219 29.53125 63.433594 33.300781 58.800781 33.300781 L 39.601562 33.300781 C 34.96875 33.300781 31.199219 29.53125 31.199219 24.898438 C 31.199219 20.269531 34.96875 16.5 39.601562 16.5 Z M 37.199219 38.101562 L 45.601562 38.101562 L 45.601562 54.898438 L 37.199219 54.898438 C 32.566406 54.898438 28.800781 51.132812 28.800781 46.5 C 28.800781 41.867188 32.566406 38.101562 37.199219 38.101562 Z M 60 38.101562 C 54.699219 38.101562 50.398438 42.398438 50.398438 47.699219 C 50.398438 53 54.699219 57.300781 60 57.300781 C 65.300781 57.300781 69.601562 53 69.601562 47.699219 C 69.601562 42.398438 65.300781 38.101562 60 38.101562 Z M 37.199219 59.699219 L 45.601562 59.699219 L 45.601562 68.101562 C 45.601562 72.730469 41.832031 76.5 37.199219 76.5 C 32.566406 76.5 28.800781 72.730469 28.800781 68.101562 C 28.800781 63.46875 32.566406 59.699219 37.199219 59.699219 Z M 37.199219 59.699219 "/>
</g>
</svg>
