<svg width="1400" height="18" viewBox="0 0 1400 18" fill="none" xmlns="http://www.w3.org/2000/svg">
<circle cx="7" cy="9" r="9" fill="black"/>
<circle cx="473" cy="9" r="9" fill="black"/>
<circle cx="240" cy="9" r="9" fill="black"/>
<circle cx="706" cy="9" r="9" fill="black"/>
<circle cx="1027" cy="9" r="9" fill="black"/>
<circle cx="124" cy="9" r="9" fill="black"/>
<circle cx="590" cy="9" r="9" fill="black"/>
<circle cx="357" cy="9" r="9" fill="black"/>
<circle cx="823" cy="9" r="9" fill="black"/>
<circle cx="1144" cy="9" r="9" fill="black"/>
<circle cx="1275" cy="9" r="9" fill="black"/>
<circle cx="65" cy="9" r="9" fill="black"/>
<circle cx="531" cy="9" r="9" fill="black"/>
<circle cx="298" cy="9" r="9" fill="black"/>
<circle cx="764" cy="9" r="9" fill="black"/>
<circle cx="1085" cy="9" r="9" fill="black"/>
<circle cx="182" cy="9" r="9" fill="black"/>
<circle cx="648" cy="9" r="9" fill="black"/>
<circle cx="969" cy="9" r="9" fill="black"/>
<circle cx="415" cy="9" r="9" fill="black"/>
<circle cx="881" cy="9" r="9" fill="black"/>
<circle cx="1202" cy="9" r="9" fill="black"/>
<circle cx="1333" cy="9" r="9" fill="black"/>
<circle cx="36" cy="9" r="9" fill="black"/>
<circle cx="502" cy="9" r="9" fill="black"/>
<circle cx="269" cy="9" r="9" fill="black"/>
<circle cx="735" cy="9" r="9" fill="black"/>
<circle cx="1056" cy="9" r="9" fill="black"/>
<circle cx="153" cy="9" r="9" fill="black"/>
<circle cx="619" cy="9" r="9" fill="black"/>
<circle cx="940" cy="9" r="9" fill="black"/>
<circle cx="386" cy="9" r="9" fill="black"/>
<circle cx="852" cy="9" r="9" fill="black"/>
<circle cx="1173" cy="9" r="9" fill="black"/>
<circle cx="1304" cy="9" r="9" fill="black"/>
<circle cx="94" cy="9" r="9" fill="black"/>
<circle cx="560" cy="9" r="9" fill="black"/>
<circle cx="327" cy="9" r="9" fill="black"/>
<circle cx="793" cy="9" r="9" fill="black"/>
<circle cx="1114" cy="9" r="9" fill="black"/>
<circle cx="211" cy="9" r="9" fill="black"/>
<circle cx="677" cy="9" r="9" fill="black"/>
<circle cx="998" cy="9" r="9" fill="black"/>
<circle cx="444" cy="9" r="9" fill="black"/>
<circle cx="910" cy="9" r="9" fill="black"/>
<circle cx="1231" cy="9" r="9" fill="black"/>
<circle cx="1362" cy="9" r="9" fill="black"/>
<circle cx="22" cy="9" r="9" fill="black"/>
<circle cx="488" cy="9" r="9" fill="black"/>
<circle cx="255" cy="9" r="9" fill="black"/>
<circle cx="721" cy="9" r="9" fill="black"/>
<circle cx="1042" cy="9" r="9" fill="black"/>
<circle cx="139" cy="9" r="9" fill="black"/>
<circle cx="605" cy="9" r="9" fill="black"/>
<circle cx="372" cy="9" r="9" fill="black"/>
<circle cx="838" cy="9" r="9" fill="black"/>
<circle cx="1159" cy="9" r="9" fill="black"/>
<circle cx="1290" cy="9" r="9" fill="black"/>
<circle cx="80" cy="9" r="9" fill="black"/>
<circle cx="546" cy="9" r="9" fill="black"/>
<circle cx="313" cy="9" r="9" fill="black"/>
<circle cx="779" cy="9" r="9" fill="black"/>
<circle cx="1100" cy="9" r="9" fill="black"/>
<circle cx="197" cy="9" r="9" fill="black"/>
<circle cx="663" cy="9" r="9" fill="black"/>
<circle cx="984" cy="9" r="9" fill="black"/>
<circle cx="430" cy="9" r="9" fill="black"/>
<circle cx="896" cy="9" r="9" fill="black"/>
<circle cx="1217" cy="9" r="9" fill="black"/>
<circle cx="1348" cy="9" r="9" fill="black"/>
<circle cx="51" cy="9" r="9" fill="black"/>
<circle cx="517" cy="9" r="9" fill="black"/>
<circle cx="284" cy="9" r="9" fill="black"/>
<circle cx="750" cy="9" r="9" fill="black"/>
<circle cx="1071" cy="9" r="9" fill="black"/>
<circle cx="168" cy="9" r="9" fill="black"/>
<circle cx="634" cy="9" r="9" fill="black"/>
<circle cx="955" cy="9" r="9" fill="black"/>
<circle cx="401" cy="9" r="9" fill="black"/>
<circle cx="867" cy="9" r="9" fill="black"/>
<circle cx="1188" cy="9" r="9" fill="black"/>
<circle cx="1319" cy="9" r="9" fill="black"/>
<circle cx="109" cy="9" r="9" fill="black"/>
<circle cx="575" cy="9" r="9" fill="black"/>
<circle cx="342" cy="9" r="9" fill="black"/>
<circle cx="808" cy="9" r="9" fill="black"/>
<circle cx="1129" cy="9" r="9" fill="black"/>
<circle cx="1260" cy="9" r="9" fill="black"/>
<circle cx="226" cy="9" r="9" fill="black"/>
<circle cx="692" cy="9" r="9" fill="black"/>
<circle cx="1013" cy="9" r="9" fill="black"/>
<circle cx="459" cy="9" r="9" fill="black"/>
<circle cx="925" cy="9" r="9" fill="black"/>
<circle cx="1246" cy="9" r="9" fill="black"/>
<circle cx="1377" cy="9" r="9" fill="black"/>
<circle cx="1391" cy="9" r="9" fill="black"/>
<circle cx="1404" cy="9" r="9" fill="black"/>
</svg>
